<mxfile host="app.diagrams.net" modified="2023-07-11T08:08:46.418Z" agent="Mozilla/5.0 (Windows NT 10.0; Win64; x64) AppleWebKit/537.36 (KHTML, like Gecko) Chrome/114.0.0.0 Safari/537.36" etag="kkERmHie-rNFhEfrM5xa" version="21.6.1" type="github">
  <diagram name="第 1 页" id="-03Gn73uHck9jwQGTfGm">
    <mxGraphModel dx="330" dy="178" grid="1" gridSize="10" guides="1" tooltips="1" connect="1" arrows="1" fold="1" page="1" pageScale="1" pageWidth="827" pageHeight="1169" math="0" shadow="0">
      <root>
        <mxCell id="0" />
        <mxCell id="1" parent="0" />
        <mxCell id="CoPd3ULI95kJ3X9n0NOn-1" value="Pool" style="swimlane;childLayout=stackLayout;resizeParent=1;resizeParentMax=0;startSize=20;html=1;" vertex="1" parent="1">
          <mxGeometry x="40.000000000000455" y="40" width="640" height="640" as="geometry" />
        </mxCell>
        <mxCell id="CoPd3ULI95kJ3X9n0NOn-2" value="客户" style="swimlane;startSize=20;html=1;" vertex="1" parent="CoPd3ULI95kJ3X9n0NOn-1">
          <mxGeometry y="20" width="160" height="620" as="geometry" />
        </mxCell>
        <mxCell id="CoPd3ULI95kJ3X9n0NOn-7" value="初审提交付款" style="rounded=1;whiteSpace=wrap;html=1;" vertex="1" parent="CoPd3ULI95kJ3X9n0NOn-2">
          <mxGeometry x="40" y="30" width="80" height="30" as="geometry" />
        </mxCell>
        <mxCell id="CoPd3ULI95kJ3X9n0NOn-11" value="退回" style="edgeStyle=orthogonalEdgeStyle;rounded=0;orthogonalLoop=1;jettySize=auto;html=1;exitX=0;exitY=0.5;exitDx=0;exitDy=0;entryX=0.005;entryY=0.434;entryDx=0;entryDy=0;entryPerimeter=0;" edge="1" parent="CoPd3ULI95kJ3X9n0NOn-2" source="CoPd3ULI95kJ3X9n0NOn-9" target="CoPd3ULI95kJ3X9n0NOn-7">
          <mxGeometry relative="1" as="geometry" />
        </mxCell>
        <mxCell id="CoPd3ULI95kJ3X9n0NOn-9" value="通过" style="rhombus;whiteSpace=wrap;html=1;" vertex="1" parent="CoPd3ULI95kJ3X9n0NOn-2">
          <mxGeometry x="40" y="120" width="80" height="20" as="geometry" />
        </mxCell>
        <mxCell id="CoPd3ULI95kJ3X9n0NOn-31" value="复审审核" style="rounded=1;whiteSpace=wrap;html=1;" vertex="1" parent="CoPd3ULI95kJ3X9n0NOn-2">
          <mxGeometry x="40" y="70" width="80" height="30" as="geometry" />
        </mxCell>
        <mxCell id="CoPd3ULI95kJ3X9n0NOn-10" style="edgeStyle=orthogonalEdgeStyle;rounded=0;orthogonalLoop=1;jettySize=auto;html=1;exitX=0.5;exitY=1;exitDx=0;exitDy=0;entryX=0.5;entryY=0;entryDx=0;entryDy=0;" edge="1" parent="CoPd3ULI95kJ3X9n0NOn-2" source="CoPd3ULI95kJ3X9n0NOn-31" target="CoPd3ULI95kJ3X9n0NOn-9">
          <mxGeometry relative="1" as="geometry">
            <mxPoint x="80.00000000000011" y="150" as="sourcePoint" />
          </mxGeometry>
        </mxCell>
        <mxCell id="CoPd3ULI95kJ3X9n0NOn-3" value="健宇" style="swimlane;startSize=20;html=1;" vertex="1" parent="CoPd3ULI95kJ3X9n0NOn-1">
          <mxGeometry x="160" y="20" width="160" height="620" as="geometry" />
        </mxCell>
        <mxCell id="CoPd3ULI95kJ3X9n0NOn-24" style="edgeStyle=orthogonalEdgeStyle;rounded=0;orthogonalLoop=1;jettySize=auto;html=1;exitX=0.5;exitY=1;exitDx=0;exitDy=0;entryX=0.5;entryY=0;entryDx=0;entryDy=0;" edge="1" parent="CoPd3ULI95kJ3X9n0NOn-3" source="CoPd3ULI95kJ3X9n0NOn-18" target="CoPd3ULI95kJ3X9n0NOn-21">
          <mxGeometry relative="1" as="geometry" />
        </mxCell>
        <mxCell id="CoPd3ULI95kJ3X9n0NOn-18" value="内管初审" style="rounded=1;whiteSpace=wrap;html=1;" vertex="1" parent="CoPd3ULI95kJ3X9n0NOn-3">
          <mxGeometry x="40" y="150" width="80" height="30" as="geometry" />
        </mxCell>
        <mxCell id="CoPd3ULI95kJ3X9n0NOn-21" value="内管复审" style="rounded=1;whiteSpace=wrap;html=1;" vertex="1" parent="CoPd3ULI95kJ3X9n0NOn-3">
          <mxGeometry x="40" y="330" width="80" height="50" as="geometry" />
        </mxCell>
        <mxCell id="CoPd3ULI95kJ3X9n0NOn-25" value="退回" style="edgeStyle=orthogonalEdgeStyle;rounded=0;orthogonalLoop=1;jettySize=auto;html=1;exitX=1;exitY=0.5;exitDx=0;exitDy=0;entryX=1;entryY=0.5;entryDx=0;entryDy=0;" edge="1" parent="CoPd3ULI95kJ3X9n0NOn-3" source="CoPd3ULI95kJ3X9n0NOn-22" target="CoPd3ULI95kJ3X9n0NOn-18">
          <mxGeometry relative="1" as="geometry" />
        </mxCell>
        <mxCell id="CoPd3ULI95kJ3X9n0NOn-22" value="通过" style="rhombus;whiteSpace=wrap;html=1;" vertex="1" parent="CoPd3ULI95kJ3X9n0NOn-3">
          <mxGeometry x="39.999999999999545" y="400" width="80" height="80" as="geometry" />
        </mxCell>
        <mxCell id="CoPd3ULI95kJ3X9n0NOn-23" style="edgeStyle=orthogonalEdgeStyle;rounded=0;orthogonalLoop=1;jettySize=auto;html=1;exitX=0.5;exitY=1;exitDx=0;exitDy=0;entryX=0.5;entryY=0;entryDx=0;entryDy=0;" edge="1" parent="CoPd3ULI95kJ3X9n0NOn-3" source="CoPd3ULI95kJ3X9n0NOn-21" target="CoPd3ULI95kJ3X9n0NOn-22">
          <mxGeometry relative="1" as="geometry" />
        </mxCell>
        <mxCell id="CoPd3ULI95kJ3X9n0NOn-4" value="联易融" style="swimlane;startSize=20;html=1;" vertex="1" parent="CoPd3ULI95kJ3X9n0NOn-1">
          <mxGeometry x="320" y="20" width="160" height="620" as="geometry" />
        </mxCell>
        <mxCell id="CoPd3ULI95kJ3X9n0NOn-29" style="edgeStyle=orthogonalEdgeStyle;rounded=0;orthogonalLoop=1;jettySize=auto;html=1;exitX=0.5;exitY=1;exitDx=0;exitDy=0;entryX=0.5;entryY=0;entryDx=0;entryDy=0;" edge="1" parent="CoPd3ULI95kJ3X9n0NOn-4" source="CoPd3ULI95kJ3X9n0NOn-26" target="CoPd3ULI95kJ3X9n0NOn-28">
          <mxGeometry relative="1" as="geometry" />
        </mxCell>
        <mxCell id="CoPd3ULI95kJ3X9n0NOn-26" value="提交付款" style="rounded=1;whiteSpace=wrap;html=1;" vertex="1" parent="CoPd3ULI95kJ3X9n0NOn-4">
          <mxGeometry x="40" y="475" width="80" height="50" as="geometry" />
        </mxCell>
        <mxCell id="CoPd3ULI95kJ3X9n0NOn-28" value="判断钱包路由/子账户付款" style="rounded=1;whiteSpace=wrap;html=1;" vertex="1" parent="CoPd3ULI95kJ3X9n0NOn-4">
          <mxGeometry x="40" y="540" width="80" height="50" as="geometry" />
        </mxCell>
        <mxCell id="CoPd3ULI95kJ3X9n0NOn-5" value="支付通道" style="swimlane;startSize=20;html=1;" vertex="1" parent="CoPd3ULI95kJ3X9n0NOn-1">
          <mxGeometry x="480" y="20" width="160" height="620" as="geometry" />
        </mxCell>
        <mxCell id="CoPd3ULI95kJ3X9n0NOn-20" style="edgeStyle=orthogonalEdgeStyle;rounded=0;orthogonalLoop=1;jettySize=auto;html=1;exitX=0.5;exitY=1;exitDx=0;exitDy=0;entryX=0;entryY=0.5;entryDx=0;entryDy=0;" edge="1" parent="CoPd3ULI95kJ3X9n0NOn-1" source="CoPd3ULI95kJ3X9n0NOn-9" target="CoPd3ULI95kJ3X9n0NOn-18">
          <mxGeometry relative="1" as="geometry" />
        </mxCell>
        <mxCell id="CoPd3ULI95kJ3X9n0NOn-27" style="edgeStyle=orthogonalEdgeStyle;rounded=0;orthogonalLoop=1;jettySize=auto;html=1;exitX=0.5;exitY=1;exitDx=0;exitDy=0;entryX=0;entryY=0.5;entryDx=0;entryDy=0;" edge="1" parent="CoPd3ULI95kJ3X9n0NOn-1" source="CoPd3ULI95kJ3X9n0NOn-22" target="CoPd3ULI95kJ3X9n0NOn-26">
          <mxGeometry relative="1" as="geometry">
            <Array as="points">
              <mxPoint x="240" y="520" />
              <mxPoint x="360" y="520" />
            </Array>
          </mxGeometry>
        </mxCell>
      </root>
    </mxGraphModel>
  </diagram>
</mxfile>
